<?xml version="1.0" encoding="UTF-8"?>
<svg width="512" height="512" viewBox="0 0 512 512" fill="none" xmlns="http://www.w3.org/2000/svg">
  <!-- Background Circle -->
  <circle cx="256" cy="256" r="256" fill="#0056b3"/>
  
  <!-- Document Icon -->
  <path d="M160 128h192c8.8 0 16 7.2 16 16v224c0 8.8-7.2 16-16 16H160c-8.8 0-16-7.2-16-16V144c0-8.8 7.2-16 16-16z" fill="white"/>
  
  <!-- Lines representing text -->
  <rect x="192" y="176" width="128" height="8" rx="4" fill="#0056b3"/>
  <rect x="192" y="208" width="96" height="8" rx="4" fill="#0056b3"/>
  <rect x="192" y="240" width="112" height="8" rx="4" fill="#0056b3"/>
  <rect x="192" y="272" width="80" height="8" rx="4" fill="#0056b3"/>
  
  <!-- Checkmark -->
  <path d="M224 320l32 32 64-64" stroke="white" stroke-width="16" stroke-linecap="round" stroke-linejoin="round"/>
</svg> 